<svg xmlns="http://www.w3.org/2000/svg" viewBox="0 0 286.96 82.4"><defs><style>.cls-1{fill:#fff;}.cls-2{fill:#fffdad;}</style></defs><title>Asset 11</title><g id="Layer_2" data-name="Layer 2"><g id="GS_Meetup" data-name="GS Meetup"><path class="cls-1" d="M0,66.39,2.1,64A14.5,14.5,0,0,0,12.37,68.1c4,0,6.68-2.09,6.68-5v-.08c0-2.7-1.5-4.24-7.79-5.53C4.37,56.07,1.2,53.91,1.2,49.12V49c0-4.58,4.15-7.95,9.85-7.95a15.93,15.93,0,0,1,10.53,3.58l-2,2.54A13.37,13.37,0,0,0,11,44.05c-3.9,0-6.38,2.08-6.38,4.7v.08c0,2.75,1.54,4.29,8.14,5.66s9.76,3.79,9.76,8.24v.08c0,5-4.28,8.24-10.23,8.24A17.83,17.83,0,0,1,0,66.39Z"/><path class="cls-1" d="M29.37,41.51H40.59c6.77,0,11.22,3.49,11.22,9.24v.08c0,6.28-5.4,9.53-11.78,9.53H32.75V70.63H29.37ZM40.16,57.36c5,0,8.22-2.58,8.22-6.41v-.08c0-4.16-3.21-6.32-8.05-6.32H32.75V57.36Z"/><path class="cls-1" d="M86.49,41.51h3.39V70.63H86.49Z"/><path class="cls-1" d="M98,41.51h3.16L120,64.85V41.51h3.29V70.63h-2.69L101.28,46.75V70.63H98Z"/><path class="cls-1" d="M74.06,57.18a10.38,10.38,0,0,0,2.37-1.32,7.45,7.45,0,0,0,0-11.7,10.41,10.41,0,0,0-7.09-2.52H57v29h3.35V58.17c1.08,1.15,2.81,3,3.08,3.24,2.63,2.53,7.31,8.07,15.8,9.15V67.64a21.43,21.43,0,0,1-10.28-5l-3.86-3.84,5.15-.73A20.5,20.5,0,0,0,74.06,57.18Zm-13.69-.36V44.1H69.3c3.73,0,6.77,2.66,6.77,5.93,0,3-2.27,4.92-6,5.55C67.77,56,61.61,56.68,60.37,56.82Z"/><path class="cls-1" d="M60.44,70.67H57V41.57H69.3a10.48,10.48,0,0,1,7.13,2.53,7.52,7.52,0,0,1,0,11.82,10.14,10.14,0,0,1-2.39,1.33,20.42,20.42,0,0,1-3.81.9l-5,.71L69,62.6a21.36,21.36,0,0,0,10.25,5h0v3.06h-.08c-7.62-1-12.21-5.55-14.95-8.28l-.89-.89h0c-.26-.25-1.87-2-3-3.11Zm-3.35-.14H60.3V58.2l-.87-.92-.06-.07.77-.43.16,0V44h9c3.77,0,6.84,2.69,6.84,6,0,3-2.16,5-6.08,5.62-2.22.37-8.23,1.07-9.62,1.24v1.25c1.09,1.16,2.79,3,3.05,3.22h0c.28.26.58.57.91.89,2.71,2.71,7.25,7.24,14.78,8.22V67.7a21.44,21.44,0,0,1-10.26-5l-4-3.94L70.25,58a20.06,20.06,0,0,0,3.78-.9,10,10,0,0,0,2.35-1.3,7.37,7.37,0,0,0,0-11.6,10.36,10.36,0,0,0-7-2.5H57.09ZM59.6,57.25l.7.74V56.9l-.13,0Zm.84-13.08V56.74c1.42-.16,7.38-.87,9.6-1.23,3.84-.64,6-2.59,6-5.48,0-3.23-3-5.86-6.7-5.86Z"/><path class="cls-1" d="M205.67,51.61c-5.78,0-10.3,4.82-10.3,11,0,4.85,3.27,8.37,7.78,8.37A12,12,0,0,0,210,68.8a1.77,1.77,0,0,0,.43-2.46l-.37-.57a1.75,1.75,0,0,0-2.63-.5,8.23,8.23,0,0,1-3.88,1.31A3.34,3.34,0,0,1,201,65.52a4.12,4.12,0,0,1-1-2.26c2.68.09,8.06-.08,10.74-2.52a4.88,4.88,0,0,0,1.64-3.68C212.39,53.9,209.56,51.61,205.67,51.61ZM205.46,56c1.5,0,2.34.66,2.34,1.12a.74.74,0,0,1-.29.58c-.93.87-3.53,1.34-6.75,1.29A5.35,5.35,0,0,1,205.46,56Z"/><path class="cls-1" d="M225.13,51.61c-5.78,0-10.31,4.82-10.31,11,0,4.85,3.27,8.37,7.79,8.37a12,12,0,0,0,6.83-2.15,1.78,1.78,0,0,0,.43-2.47l-.37-.56a1.75,1.75,0,0,0-1.09-.85,2.07,2.07,0,0,0-1.54.35A8.14,8.14,0,0,1,223,66.58a3.37,3.37,0,0,1-2.57-1.06,4.12,4.12,0,0,1-1-2.26c2.68.08,8.07-.08,10.75-2.52a4.87,4.87,0,0,0,1.63-3.68C231.84,53.9,229,51.61,225.13,51.61ZM227,57.72c-.93.87-3.52,1.34-6.74,1.29a5.34,5.34,0,0,1,4.69-3c1.51,0,2.34.66,2.34,1.12A.71.71,0,0,1,227,57.72Z"/><path class="cls-1" d="M246.13,52h-3.58l.41-2.76a1.8,1.8,0,0,0-.42-1.46,1.91,1.91,0,0,0-1.48-.64h0l-.65,0a2,2,0,0,0-2,1.69L237.93,52h-1.81a1.85,1.85,0,0,0-1.92,1.58l-.08.56a1.72,1.72,0,0,0,.28,1.49,1.74,1.74,0,0,0,1.46.66h1.44L236,64.9c-.24,1.63-.35,3.46.76,4.74A4.27,4.27,0,0,0,240.14,71a10.55,10.55,0,0,0,5.42-1.69,1.78,1.78,0,0,0,.65-2.51l-.34-.57a1.83,1.83,0,0,0-2.48-.61,11.33,11.33,0,0,1-2.26.81c-.25.06-.74.09-.69-.43,0-.21,0-.37.08-.75l1.36-8.9h4a2,2,0,0,0,2-1.66l.09-.53a1.81,1.81,0,0,0-1.83-2.1Z"/><path class="cls-1" d="M264.89,52h-.81a1.93,1.93,0,0,0-2,1.68l-1.65,10.87a6,6,0,0,1-4.12,2,2.16,2.16,0,0,1-1.74-.62c-.52-.6-.68-1.8-.45-3.36l1.33-8.49a1.8,1.8,0,0,0-.42-1.46,1.84,1.84,0,0,0-1.41-.64h-.81a2,2,0,0,0-2,1.68l-1.29,8.49c-.45,2.94,0,5.22,1.32,6.76A6.33,6.33,0,0,0,256,71a9.61,9.61,0,0,0,4.52-1.13,1.75,1.75,0,0,0,1.46.73h.51a2,2,0,0,0,2-1.68l2.22-14.76a1.86,1.86,0,0,0-.41-1.47A1.83,1.83,0,0,0,264.89,52Z"/><path class="cls-1" d="M279.3,51.61a9.81,9.81,0,0,0-4.23,1,1.84,1.84,0,0,0-1.41-.59h-.47a2,2,0,0,0-2,1.68L267.13,80.3a1.81,1.81,0,0,0,.42,1.46,1.84,1.84,0,0,0,1.41.64h.73a2,2,0,0,0,2-1.69l1.56-10.4a8.13,8.13,0,0,0,3.23.64A10.73,10.73,0,0,0,287,60C287,55.23,283.67,51.61,279.3,51.61Zm-2.77,15a3.6,3.6,0,0,1-2.48-1l1.21-8.15A5.64,5.64,0,0,1,278.92,56c2.48,0,3.36,2.22,3.36,4.12C282.28,63.75,279.75,66.58,276.53,66.58Z"/><path class="cls-1" d="M192.37,66.74l-.33-.65a1.94,1.94,0,0,0-2.68-.82c-.58.28-1.19.7-1.56.47a.54.54,0,0,1-.19-.4c0-.27-.06-.57-.07-.69-.16-1.84-.16-2.46-.19-2.81l-1.06-19.08a1.7,1.7,0,0,0-1.72-1.66h-.38a1.73,1.73,0,0,0-1.61,1l-9.94,19L169.3,42.47a1.62,1.62,0,0,0-1.65-1.37h-.38a1.68,1.68,0,0,0-1.72,1.18l-.12.25c-.55,2.63-2.08,8.82-6,13.23v9.57a28.14,28.14,0,0,0,7.06-12.88l3.12,17.08A1.7,1.7,0,0,0,171.41,71h.17A1.87,1.87,0,0,0,173.32,70l9-17.36.38,9.55c0,.06,0,1.36.18,3.46a7.45,7.45,0,0,0,1.27,4.08c2,2.33,4.76,1.29,7.38-.24A2,2,0,0,0,192.37,66.74Z"/><path class="cls-1" d="M156,56.28H143.88v3.36l8.84-.06V66l-.2.13a13,13,0,0,1-7.24,2,14,14,0,0,1-3.78-.5A11.52,11.52,0,0,1,133,56.23c0-6.92,5.2-11.93,12.36-11.93a13.85,13.85,0,0,1,3.59.45A12.07,12.07,0,0,1,154,47.59h0l2.06-2.06A13.19,13.19,0,0,0,149.9,42a18,18,0,0,0-4.75-.6c-9,0-15.6,6.25-15.6,14.87a15.57,15.57,0,0,0,.67,4.54l0,.09c.13.43.28.86.45,1.27l.05.11c.18.42.37.83.58,1.22l0,.06a14.17,14.17,0,0,0,2.53,3.32l.28.25c.23.22.47.42.71.62l.43.33c.21.15.43.31.65.45s.35.23.53.34l.61.34q.32.18.63.33l.56.25.75.31.35.11a16.3,16.3,0,0,0,2.26.61l-.1,0,.66.07a19.06,19.06,0,0,0,2.87.23,20,20,0,0,0,4-.43,19.62,19.62,0,0,0,6.12-2.2c.26-.18.5-.37.75-.57V66.3l0,0,0-10Z"/><path class="cls-1" d="M29.36.5h3.33V29.73H29.36Z"/><path class="cls-1" d="M41,.5h3.18L63.09,23.92V.5H66.4V29.73H63.69l-19.38-24v24H41Z"/><path class="cls-1" d="M80.81,3.55H71.44V.5H93.77V3.55H84.18V29.73H80.81Z"/><path class="cls-1" d="M123.62,15.2v-.09A14.79,14.79,0,0,1,138.54,0a15.44,15.44,0,0,1,11.51,4.63l-2.28,2.43a12.86,12.86,0,0,0-9.27-4c-6.53,0-11.43,5.26-11.43,12v.08c0,6.77,4.94,12.07,11.43,12.07,4.05,0,6.7-1.55,9.53-4.22l2.19,2.13c-3.08,3.09-6.45,5.14-11.8,5.14A14.65,14.65,0,0,1,123.62,15.2Z"/><path class="cls-1" d="M155.12.5h3.33v13h17V.5h3.33V29.73h-3.33V16.57h-17V29.73h-3.33Z"/><path class="cls-1" d="M119.89.52h-19c-2.18,0-2.5,1.7-2.5,2.72V29.71h21.51v-3H101.54V16.43h16.52V13.51H101.54V4.89h0a1.34,1.34,0,0,1,1.35-1.3h17Z"/><path class="cls-1" d="M6.2,3.58H23v-3H3.4A1.86,1.86,0,0,0,1.54,2.4v.07h0V29.73H4.92V17H20.08V14H4.92V4.9A1.33,1.33,0,0,1,6.2,3.58Z"/><path class="cls-2" d="M199.75,10.69v0a4.56,4.56,0,0,1,4.67-4.6,4.51,4.51,0,0,1,4.64,4.57v0a4.66,4.66,0,0,1-9.31,0Zm7.67,0v0a3.05,3.05,0,0,0-3-3.17,3,3,0,0,0-3,3.14v0a3.05,3.05,0,0,0,3,3.17A3,3,0,0,0,207.42,10.69Z"/><path class="cls-2" d="M211.14,8.4h1.54v1a2.42,2.42,0,0,1,2.1-1.18,2.3,2.3,0,0,1,2.39,2.58v4.27h-1.54V11.3c0-1.05-.52-1.64-1.43-1.64a1.5,1.5,0,0,0-1.52,1.66v3.79h-1.54Z"/><path class="cls-2" d="M219.48,5.83H221v9.28h-1.54Z"/><path class="cls-2" d="M223.42,5.9h1.66V7.37h-1.66Zm.07,2.5H225v6.71h-1.54Z"/><path class="cls-2" d="M227.4,8.4h1.54v1A2.42,2.42,0,0,1,231,8.26a2.3,2.3,0,0,1,2.39,2.58v4.27H231.9V11.3c0-1.05-.53-1.64-1.44-1.64a1.5,1.5,0,0,0-1.52,1.66v3.79H227.4Z"/><path class="cls-2" d="M235.29,11.78v0a3.33,3.33,0,0,1,3.28-3.49c2.14,0,3.22,1.67,3.22,3.61,0,.14,0,.28,0,.43h-4.93A1.88,1.88,0,0,0,238.76,14a2.43,2.43,0,0,0,1.82-.81l.9.81a3.39,3.39,0,0,1-2.75,1.26A3.35,3.35,0,0,1,235.29,11.78Zm5-.5a1.74,1.74,0,0,0-1.7-1.76,1.82,1.82,0,0,0-1.75,1.76Z"/><path class="cls-2" d="M199.27,28.33l1-1a2.21,2.21,0,0,0,1.79,1c.84,0,1.42-.56,1.42-1.74V20.74h1.6v5.87a3.24,3.24,0,0,1-.83,2.37,3,3,0,0,1-2.16.79A3.34,3.34,0,0,1,199.27,28.33Z"/><path class="cls-2" d="M207.37,27.2V22.93h1.54v3.81c0,1,.52,1.64,1.43,1.64a1.5,1.5,0,0,0,1.52-1.66V22.93h1.54v6.71h-1.54v-1a2.43,2.43,0,0,1-2.1,1.18A2.31,2.31,0,0,1,207.37,27.2Z"/><path class="cls-2" d="M215.7,22.93h1.53v1a2.42,2.42,0,0,1,2.1-1.18,2.31,2.31,0,0,1,2.4,2.58v4.27h-1.54V25.83c0-1-.53-1.64-1.44-1.64a1.5,1.5,0,0,0-1.52,1.66v3.79H215.7Z"/><path class="cls-2" d="M223.58,26.31v0a3.33,3.33,0,0,1,3.28-3.49c2.14,0,3.22,1.67,3.22,3.61a3.22,3.22,0,0,1,0,.43h-4.93a1.87,1.87,0,0,0,1.93,1.7,2.4,2.4,0,0,0,1.82-.8l.9.8a3.5,3.5,0,0,1-6.19-2.22Zm5-.5a1.75,1.75,0,0,0-1.7-1.77,1.83,1.83,0,0,0-1.75,1.77Z"/><path class="cls-2" d="M237.47,22.26l-1.6.45-.33-1.27,2.39-.77H239v9h-1.56Z"/><path class="cls-2" d="M241.21,28.43l1-1.13a3.4,3.4,0,0,0,2.29,1.07,1.57,1.57,0,0,0,1.77-1.54v0c0-.9-.77-1.47-1.85-1.47a3.89,3.89,0,0,0-1.64.39l-.94-.62.25-4.36h5.32v1.38h-4l-.14,2.09a3.87,3.87,0,0,1,1.41-.25c1.73,0,3.09.91,3.09,2.79v0a3,3,0,0,1-3.29,3A4.54,4.54,0,0,1,241.21,28.43Z"/><path class="cls-2" d="M249.6,25h3.77V26.5H249.6Z"/><path class="cls-2" d="M256.33,22.26l-1.61.45-.33-1.27,2.4-.77h1.09v9h-1.55Z"/><path class="cls-2" d="M264.81,22.11h-4.48V20.74h6.26v1.18l-4,7.72h-1.76Z"/></g></g></svg>